<svg xmlns="http://www.w3.org/2000/svg" width="880" height="646" viewBox="0 0 880 646" font-family='system-ui, -apple-system, "Segoe UI", sans-serif'><rect width="880" height="646" fill="#fcfcfb"/>
<text x="28.0" y="40.0" font-size="19" fill="#0b0b0b" text-anchor="start" font-weight="600" style="font-variant-numeric: tabular-nums">YouTube's ad take has fallen 12%–20% every Q1 for 8 years, boom or slump.</text>
<text x="28.0" y="60.0" font-size="12" fill="#52514e" text-anchor="start" font-weight="normal" style="font-variant-numeric: tabular-nums">Alphabet 'YouTube ads' revenue by quarter. Each red drop is a Q4 → next Q1 transition, and each one is plotted again on the right.</text>
<text x="28.0" y="88.0" font-size="8.5" fill="#8a8880" text-anchor="start" font-weight="700" letter-spacing="0.9" style="font-variant-numeric: tabular-nums">FOR</text>
<text x="28.0" y="103.0" font-size="11.5" fill="#52514e" text-anchor="start" font-weight="normal" style="font-variant-numeric: tabular-nums">A creator budgeting next year's income, or a</text>
<text x="28.0" y="116.5" font-size="11.5" fill="#52514e" text-anchor="start" font-weight="normal" style="font-variant-numeric: tabular-nums">brand timing a sponsorship buy</text>
<text x="302.7" y="88.0" font-size="8.5" fill="#8a8880" text-anchor="start" font-weight="700" letter-spacing="0.9" style="font-variant-numeric: tabular-nums">DECIDE</text>
<text x="302.7" y="103.0" font-size="11.5" fill="#52514e" text-anchor="start" font-weight="normal" style="font-variant-numeric: tabular-nums">Whether to hold Q4 cash for a January dip,</text>
<text x="302.7" y="116.5" font-size="11.5" fill="#52514e" text-anchor="start" font-weight="normal" style="font-variant-numeric: tabular-nums">and when sponsorship money goes furthest</text>
<text x="577.3" y="88.0" font-size="8.5" fill="#8a8880" text-anchor="start" font-weight="700" letter-spacing="0.9" style="font-variant-numeric: tabular-nums">WRONG IF</text>
<text x="577.3" y="103.0" font-size="11.5" fill="#8a8880" text-anchor="start" font-weight="normal" style="font-variant-numeric: tabular-nums">A Q1 lands at or above the Q4 before it, or</text>
<text x="577.3" y="116.5" font-size="11.5" fill="#8a8880" text-anchor="start" font-weight="normal" style="font-variant-numeric: tabular-nums">the right-hand dots start to slope with</text>
<text x="577.3" y="130.0" font-size="11.5" fill="#8a8880" text-anchor="start" font-weight="normal" style="font-variant-numeric: tabular-nums">market growth</text>
<line x1="28" y1="139.5" x2="852" y2="139.5" stroke="#e3e2db"/>
<line x1="70" y1="453.5" x2="520" y2="453.5" stroke="#f0efe9"/>
<text x="62.0" y="457.5" font-size="10" fill="#8a8880" text-anchor="end" font-weight="normal" style="font-variant-numeric: tabular-nums">$0B</text>
<line x1="70" y1="410.6" x2="520" y2="410.6" stroke="#f0efe9"/>
<text x="62.0" y="414.6" font-size="10" fill="#8a8880" text-anchor="end" font-weight="normal" style="font-variant-numeric: tabular-nums">$2B</text>
<line x1="70" y1="367.6" x2="520" y2="367.6" stroke="#f0efe9"/>
<text x="62.0" y="371.6" font-size="10" fill="#8a8880" text-anchor="end" font-weight="normal" style="font-variant-numeric: tabular-nums">$4B</text>
<line x1="70" y1="324.7" x2="520" y2="324.7" stroke="#f0efe9"/>
<text x="62.0" y="328.7" font-size="10" fill="#8a8880" text-anchor="end" font-weight="normal" style="font-variant-numeric: tabular-nums">$6B</text>
<line x1="70" y1="281.7" x2="520" y2="281.7" stroke="#f0efe9"/>
<text x="62.0" y="285.7" font-size="10" fill="#8a8880" text-anchor="end" font-weight="normal" style="font-variant-numeric: tabular-nums">$8B</text>
<line x1="70" y1="238.8" x2="520" y2="238.8" stroke="#f0efe9"/>
<text x="62.0" y="242.8" font-size="10" fill="#8a8880" text-anchor="end" font-weight="normal" style="font-variant-numeric: tabular-nums">$10B</text>
<line x1="70" y1="195.8" x2="520" y2="195.8" stroke="#f0efe9"/>
<text x="62.0" y="199.8" font-size="10" fill="#8a8880" text-anchor="end" font-weight="normal" style="font-variant-numeric: tabular-nums">$12B</text>
<text x="85.0" y="471.5" font-size="10" fill="#8a8880" text-anchor="middle" font-weight="normal" style="font-variant-numeric: tabular-nums">2019</text>
<text x="145.0" y="471.5" font-size="10" fill="#8a8880" text-anchor="middle" font-weight="normal" style="font-variant-numeric: tabular-nums">2020</text>
<text x="205.0" y="471.5" font-size="10" fill="#8a8880" text-anchor="middle" font-weight="normal" style="font-variant-numeric: tabular-nums">2021</text>
<text x="265.0" y="471.5" font-size="10" fill="#8a8880" text-anchor="middle" font-weight="normal" style="font-variant-numeric: tabular-nums">2022</text>
<text x="325.0" y="471.5" font-size="10" fill="#8a8880" text-anchor="middle" font-weight="normal" style="font-variant-numeric: tabular-nums">2023</text>
<text x="385.0" y="471.5" font-size="10" fill="#8a8880" text-anchor="middle" font-weight="normal" style="font-variant-numeric: tabular-nums">2024</text>
<text x="445.0" y="471.5" font-size="10" fill="#8a8880" text-anchor="middle" font-weight="normal" style="font-variant-numeric: tabular-nums">2025</text>
<text x="505.0" y="471.5" font-size="10" fill="#8a8880" text-anchor="middle" font-weight="normal" style="font-variant-numeric: tabular-nums">2026</text>
<line x1="70.0" y1="376.1" x2="85.0" y2="388.5" stroke="#c0503e" stroke-width="3"/>
<line x1="85.0" y1="388.5" x2="100.0" y2="376.1" stroke="#2f6f5e" stroke-width="1.8"/>
<line x1="100.0" y1="376.1" x2="115.0" y2="371.8" stroke="#2f6f5e" stroke-width="1.8"/>
<line x1="115.0" y1="371.8" x2="130.0" y2="352.2" stroke="#2f6f5e" stroke-width="1.8"/>
<line x1="130.0" y1="352.2" x2="145.0" y2="366.8" stroke="#c0503e" stroke-width="3"/>
<line x1="145.0" y1="366.8" x2="160.0" y2="371.6" stroke="#2f6f5e" stroke-width="1.8"/>
<line x1="160.0" y1="371.6" x2="175.0" y2="345.3" stroke="#2f6f5e" stroke-width="1.8"/>
<line x1="175.0" y1="345.3" x2="190.0" y2="305.6" stroke="#2f6f5e" stroke-width="1.8"/>
<line x1="190.0" y1="305.6" x2="205.0" y2="324.5" stroke="#c0503e" stroke-width="3"/>
<line x1="205.0" y1="324.5" x2="220.0" y2="303.1" stroke="#2f6f5e" stroke-width="1.8"/>
<line x1="220.0" y1="303.1" x2="235.0" y2="298.8" stroke="#2f6f5e" stroke-width="1.8"/>
<line x1="235.0" y1="298.8" x2="250.0" y2="268.1" stroke="#2f6f5e" stroke-width="1.8"/>
<line x1="250.0" y1="268.1" x2="265.0" y2="306.0" stroke="#c0503e" stroke-width="3"/>
<line x1="265.0" y1="306.0" x2="280.0" y2="295.9" stroke="#2f6f5e" stroke-width="1.8"/>
<line x1="280.0" y1="295.9" x2="295.0" y2="301.7" stroke="#2f6f5e" stroke-width="1.8"/>
<line x1="295.0" y1="301.7" x2="310.0" y2="282.5" stroke="#2f6f5e" stroke-width="1.8"/>
<line x1="310.0" y1="282.5" x2="325.0" y2="309.8" stroke="#c0503e" stroke-width="3"/>
<line x1="325.0" y1="309.8" x2="340.0" y2="288.9" stroke="#2f6f5e" stroke-width="1.8"/>
<line x1="340.0" y1="288.9" x2="355.0" y2="282.7" stroke="#2f6f5e" stroke-width="1.8"/>
<line x1="355.0" y1="282.7" x2="370.0" y2="255.9" stroke="#2f6f5e" stroke-width="1.8"/>
<line x1="370.0" y1="255.9" x2="385.0" y2="279.8" stroke="#c0503e" stroke-width="3"/>
<line x1="385.0" y1="279.8" x2="400.0" y2="267.5" stroke="#2f6f5e" stroke-width="1.8"/>
<line x1="400.0" y1="267.5" x2="415.0" y2="261.9" stroke="#2f6f5e" stroke-width="1.8"/>
<line x1="415.0" y1="261.9" x2="430.0" y2="228.6" stroke="#2f6f5e" stroke-width="1.8"/>
<line x1="430.0" y1="228.6" x2="445.0" y2="261.8" stroke="#c0503e" stroke-width="3"/>
<line x1="445.0" y1="261.8" x2="460.0" y2="243.1" stroke="#2f6f5e" stroke-width="1.8"/>
<line x1="460.0" y1="243.1" x2="475.0" y2="233.1" stroke="#2f6f5e" stroke-width="1.8"/>
<line x1="475.0" y1="233.1" x2="490.0" y2="209.1" stroke="#2f6f5e" stroke-width="1.8"/>
<line x1="490.0" y1="209.1" x2="505.0" y2="241.3" stroke="#c0503e" stroke-width="3"/>
<line x1="505.0" y1="241.3" x2="520.0" y2="216.1" stroke="#2f6f5e" stroke-width="1.8"/>
<circle cx="70.0" cy="376.1" r="2.6" fill="#2f6f5e"/>
<circle cx="85.0" cy="388.5" r="2.6" fill="#c0503e"/>
<circle cx="100.0" cy="376.1" r="2.6" fill="#2f6f5e"/>
<circle cx="115.0" cy="371.8" r="2.6" fill="#2f6f5e"/>
<circle cx="130.0" cy="352.2" r="2.6" fill="#2f6f5e"/>
<circle cx="145.0" cy="366.8" r="2.6" fill="#c0503e"/>
<circle cx="160.0" cy="371.6" r="2.6" fill="#2f6f5e"/>
<circle cx="175.0" cy="345.3" r="2.6" fill="#2f6f5e"/>
<circle cx="190.0" cy="305.6" r="2.6" fill="#2f6f5e"/>
<circle cx="205.0" cy="324.5" r="2.6" fill="#c0503e"/>
<circle cx="220.0" cy="303.1" r="2.6" fill="#2f6f5e"/>
<circle cx="235.0" cy="298.8" r="2.6" fill="#2f6f5e"/>
<circle cx="250.0" cy="268.1" r="2.6" fill="#2f6f5e"/>
<circle cx="265.0" cy="306.0" r="2.6" fill="#c0503e"/>
<circle cx="280.0" cy="295.9" r="2.6" fill="#2f6f5e"/>
<circle cx="295.0" cy="301.7" r="2.6" fill="#2f6f5e"/>
<circle cx="310.0" cy="282.5" r="2.6" fill="#2f6f5e"/>
<circle cx="325.0" cy="309.8" r="2.6" fill="#c0503e"/>
<circle cx="340.0" cy="288.9" r="2.6" fill="#2f6f5e"/>
<circle cx="355.0" cy="282.7" r="2.6" fill="#2f6f5e"/>
<circle cx="370.0" cy="255.9" r="2.6" fill="#2f6f5e"/>
<circle cx="385.0" cy="279.8" r="2.6" fill="#c0503e"/>
<circle cx="400.0" cy="267.5" r="2.6" fill="#2f6f5e"/>
<circle cx="415.0" cy="261.9" r="2.6" fill="#2f6f5e"/>
<circle cx="430.0" cy="228.6" r="2.6" fill="#2f6f5e"/>
<circle cx="445.0" cy="261.8" r="2.6" fill="#c0503e"/>
<circle cx="460.0" cy="243.1" r="2.6" fill="#2f6f5e"/>
<circle cx="475.0" cy="233.1" r="2.6" fill="#2f6f5e"/>
<circle cx="490.0" cy="209.1" r="2.6" fill="#2f6f5e"/>
<circle cx="505.0" cy="241.3" r="2.6" fill="#c0503e"/>
<circle cx="520.0" cy="216.1" r="2.6" fill="#2f6f5e"/>
<text x="70.0" y="177.5" font-size="8.5" fill="#8a8880" text-anchor="start" font-weight="700" letter-spacing="0.9" style="font-variant-numeric: tabular-nums">QUARTERLY YOUTUBE AD REVENUE</text>
<text x="600.0" y="177.5" font-size="8.5" fill="#8a8880" text-anchor="start" font-weight="700" letter-spacing="0.9" style="font-variant-numeric: tabular-nums">Q4 → Q1 DROP vs MARKET THAT YEAR</text>
<rect x="600" y="327.0" width="240" height="81.8" fill="#c0503e" fill-opacity="0.08"/>
<line x1="600" y1="209.1" x2="840" y2="209.1" stroke="#e3e2db"/>
<text x="594.0" y="213.1" font-size="10" fill="#8a8880" text-anchor="end" font-weight="normal" style="font-variant-numeric: tabular-nums">0%</text>
<line x1="600" y1="306.8" x2="840" y2="306.8" stroke="#f0efe9"/>
<text x="594.0" y="310.8" font-size="10" fill="#8a8880" text-anchor="end" font-weight="normal" style="font-variant-numeric: tabular-nums">-10%</text>
<line x1="600" y1="404.6" x2="840" y2="404.6" stroke="#f0efe9"/>
<text x="594.0" y="408.6" font-size="10" fill="#8a8880" text-anchor="end" font-weight="normal" style="font-variant-numeric: tabular-nums">-20%</text>
<line x1="636.9" y1="189.5" x2="636.9" y2="453.5" stroke="#f0efe9"/>
<text x="636.9" y="471.5" font-size="10" fill="#8a8880" text-anchor="middle" font-weight="normal" style="font-variant-numeric: tabular-nums">+0%</text>
<line x1="729.2" y1="189.5" x2="729.2" y2="453.5" stroke="#f0efe9"/>
<text x="729.2" y="471.5" font-size="10" fill="#8a8880" text-anchor="middle" font-weight="normal" style="font-variant-numeric: tabular-nums">+25%</text>
<line x1="821.5" y1="189.5" x2="821.5" y2="453.5" stroke="#f0efe9"/>
<text x="821.5" y="471.5" font-size="10" fill="#8a8880" text-anchor="middle" font-weight="normal" style="font-variant-numeric: tabular-nums">+50%</text>
<text x="720.0" y="487.5" font-size="9.5" fill="#8a8880" text-anchor="middle" font-weight="normal" style="font-variant-numeric: tabular-nums">that Q1's growth on the year before</text>
<text x="604.0" y="203.1" font-size="9.5" fill="#8a8880" text-anchor="start" font-weight="normal" style="font-variant-numeric: tabular-nums">no cliff: never observed</text>
<circle cx="760.6" cy="349.8" r="5" fill="#c0503e" stroke="#fcfcfb" stroke-width="1.4"/>
<text x="768.6" y="353.8" font-size="9.5" fill="#52514e" text-anchor="start" font-weight="normal" style="font-variant-numeric: tabular-nums">2020</text>
<circle cx="816.8" cy="334.0" r="5" fill="#c0503e" stroke="#fcfcfb" stroke-width="1.4"/>
<text x="824.8" y="338.0" font-size="9.5" fill="#52514e" text-anchor="start" font-weight="normal" style="font-variant-numeric: tabular-nums">2021</text>
<circle cx="690.0" cy="408.8" r="5" fill="#c0503e" stroke="#fcfcfb" stroke-width="1.4"/>
<text x="698.0" y="412.8" font-size="9.5" fill="#52514e" text-anchor="start" font-weight="normal" style="font-variant-numeric: tabular-nums">2022</text>
<circle cx="627.5" cy="365.0" r="5" fill="#c08a3e" stroke="#fcfcfb" stroke-width="1.4"/>
<text x="635.5" y="369.0" font-size="9.5" fill="#52514e" text-anchor="start" font-weight="normal" style="font-variant-numeric: tabular-nums">2023</text>
<circle cx="714.0" cy="327.0" r="5" fill="#c0503e" stroke="#fcfcfb" stroke-width="1.4"/>
<text x="722.0" y="331.0" font-size="9.5" fill="#52514e" text-anchor="start" font-weight="normal" style="font-variant-numeric: tabular-nums">2024</text>
<circle cx="675.1" cy="353.4" r="5" fill="#c0503e" stroke="#fcfcfb" stroke-width="1.4"/>
<text x="683.1" y="357.4" font-size="9.5" fill="#52514e" text-anchor="start" font-weight="normal" style="font-variant-numeric: tabular-nums">2025</text>
<circle cx="676.5" cy="337.9" r="5" fill="#c0503e" stroke="#fcfcfb" stroke-width="1.4"/>
<text x="684.5" y="341.9" font-size="9.5" fill="#52514e" text-anchor="start" font-weight="normal" style="font-variant-numeric: tabular-nums">2026</text>
<text x="28.0" y="519.5" fill="none" stroke="#fcfcfb" stroke-width="3.4" stroke-linejoin="round" font-size="12.5" text-anchor="start" font-weight="600" style="font-variant-numeric: tabular-nums">Budget Q1 income at about 85% of Q4, in any market.</text>
<text x="28.0" y="519.5" fill="#0b0b0b" font-size="12.5" text-anchor="start" font-weight="600" style="font-variant-numeric: tabular-nums">Budget Q1 income at about 85% of Q4, in any market.</text>
<text x="28.0" y="538.5" font-size="10.5" fill="#8a8880" text-anchor="start" font-weight="normal" style="font-variant-numeric: tabular-nums">The dip does not shrink in a boom or deepen in a slump: 2021's Q1 grew 49% on the year and 2023's shrank, and both sit in the</text>
<text x="28.0" y="551.5" font-size="10.5" fill="#8a8880" text-anchor="start" font-weight="normal" style="font-variant-numeric: tabular-nums">same band. So the dip is a calendar effect, not a market one. If the drop is price rather than volume, Q1 is when a brand's</text>
<text x="28.0" y="564.5" font-size="10.5" fill="#8a8880" text-anchor="start" font-weight="normal" style="font-variant-numeric: tabular-nums">budget buys the most views, and when a creator has the least ad income to fall back on while negotiating.</text>
<line x1="28" y1="602.0" x2="852" y2="602.0" stroke="#e3e2db"/>
<text x="28.0" y="618.0" font-size="10" fill="#8a8880" text-anchor="start" font-weight="normal" style="font-variant-numeric: tabular-nums">Source: Alphabet Forms 10-Q, 10-K and 8-K earnings exhibits, row 'YouTube ads'. Rows in data/macro/macro.csv. Revenue is price times</text>
<text x="28.0" y="631.0" font-size="10" fill="#8a8880" text-anchor="start" font-weight="normal" style="font-variant-numeric: tabular-nums">volume; a quarter with more views and flat CPM would also rise.</text>
</svg>